<mxfile host="Electron" agent="Mozilla/5.0 (Windows NT 10.0; Win64; x64) AppleWebKit/537.36 (KHTML, like Gecko) draw.io/24.7.17 Chrome/128.0.6613.36 Electron/32.0.1 Safari/537.36" version="24.7.17">
  <diagram id="t4iyJ-2K-X9mLFhjT-cI" name="페이지-1">
    <mxGraphModel dx="1462" dy="1062" grid="1" gridSize="10" guides="1" tooltips="1" connect="1" arrows="1" fold="1" page="0" pageScale="1" pageWidth="3300" pageHeight="4681" math="0" shadow="0">
      <root>
        <mxCell id="0" />
        <mxCell id="1" parent="0" />
        <mxCell id="3Y2qNAMYO-wNbByZRbtN-2" value="2 IF-ELSE" style="shape=umlFrame;whiteSpace=wrap;html=1;pointerEvents=0;width=100;height=30;" vertex="1" parent="1">
          <mxGeometry x="290" y="-170" width="660" height="1080" as="geometry" />
        </mxCell>
        <mxCell id="3Y2qNAMYO-wNbByZRbtN-6" value="" style="edgeStyle=none;curved=1;rounded=0;orthogonalLoop=1;jettySize=auto;html=1;fontSize=12;startSize=8;endSize=8;" edge="1" parent="1" source="3Y2qNAMYO-wNbByZRbtN-3" target="3Y2qNAMYO-wNbByZRbtN-5">
          <mxGeometry relative="1" as="geometry" />
        </mxCell>
        <mxCell id="3Y2qNAMYO-wNbByZRbtN-3" value="시작" style="strokeWidth=2;html=1;shape=mxgraph.flowchart.terminator;whiteSpace=wrap;" vertex="1" parent="1">
          <mxGeometry x="-120" y="-150" width="100" height="60" as="geometry" />
        </mxCell>
        <mxCell id="3Y2qNAMYO-wNbByZRbtN-4" value="끝" style="strokeWidth=2;html=1;shape=mxgraph.flowchart.terminator;whiteSpace=wrap;" vertex="1" parent="1">
          <mxGeometry x="-122.5" y="810" width="100" height="60" as="geometry" />
        </mxCell>
        <mxCell id="3Y2qNAMYO-wNbByZRbtN-8" value="" style="edgeStyle=none;curved=1;rounded=0;orthogonalLoop=1;jettySize=auto;html=1;fontSize=12;startSize=8;endSize=8;" edge="1" parent="1" source="3Y2qNAMYO-wNbByZRbtN-5">
          <mxGeometry relative="1" as="geometry">
            <mxPoint x="-67.5" y="90" as="targetPoint" />
          </mxGeometry>
        </mxCell>
        <mxCell id="3Y2qNAMYO-wNbByZRbtN-5" value="나이(age) 입력" style="shape=parallelogram;html=1;strokeWidth=2;perimeter=parallelogramPerimeter;whiteSpace=wrap;rounded=1;arcSize=12;size=0.23;" vertex="1" parent="1">
          <mxGeometry x="-135" y="-30" width="135" height="60" as="geometry" />
        </mxCell>
        <mxCell id="3Y2qNAMYO-wNbByZRbtN-11" value="" style="edgeStyle=none;curved=1;rounded=0;orthogonalLoop=1;jettySize=auto;html=1;fontSize=12;startSize=8;endSize=8;" edge="1" parent="1" source="3Y2qNAMYO-wNbByZRbtN-9" target="3Y2qNAMYO-wNbByZRbtN-10">
          <mxGeometry relative="1" as="geometry" />
        </mxCell>
        <mxCell id="3Y2qNAMYO-wNbByZRbtN-15" value="" style="edgeStyle=none;curved=1;rounded=0;orthogonalLoop=1;jettySize=auto;html=1;fontSize=12;startSize=8;endSize=8;" edge="1" parent="1" source="3Y2qNAMYO-wNbByZRbtN-9" target="3Y2qNAMYO-wNbByZRbtN-14">
          <mxGeometry relative="1" as="geometry" />
        </mxCell>
        <mxCell id="3Y2qNAMYO-wNbByZRbtN-9" value="age &amp;gt;=8" style="strokeWidth=2;html=1;shape=mxgraph.flowchart.decision;whiteSpace=wrap;" vertex="1" parent="1">
          <mxGeometry x="-117.5" y="90" width="100" height="100" as="geometry" />
        </mxCell>
        <mxCell id="3Y2qNAMYO-wNbByZRbtN-10" value="&quot;학교에 다닙니다&quot;" style="strokeWidth=2;html=1;shape=mxgraph.flowchart.document2;whiteSpace=wrap;size=0.25;" vertex="1" parent="1">
          <mxGeometry x="50" y="110" width="100" height="60" as="geometry" />
        </mxCell>
        <mxCell id="3Y2qNAMYO-wNbByZRbtN-12" value="YES" style="text;html=1;align=center;verticalAlign=middle;resizable=0;points=[];autosize=1;strokeColor=none;fillColor=none;fontSize=16;" vertex="1" parent="1">
          <mxGeometry x="-30" y="110" width="60" height="30" as="geometry" />
        </mxCell>
        <mxCell id="3Y2qNAMYO-wNbByZRbtN-17" value="" style="edgeStyle=none;curved=1;rounded=0;orthogonalLoop=1;jettySize=auto;html=1;fontSize=12;startSize=8;endSize=8;" edge="1" parent="1" source="3Y2qNAMYO-wNbByZRbtN-14" target="3Y2qNAMYO-wNbByZRbtN-16">
          <mxGeometry relative="1" as="geometry" />
        </mxCell>
        <mxCell id="3Y2qNAMYO-wNbByZRbtN-14" value="&quot;1 IF 코드블럭 종료&quot;" style="shape=parallelogram;html=1;strokeWidth=2;perimeter=parallelogramPerimeter;whiteSpace=wrap;rounded=1;arcSize=12;size=0.23;" vertex="1" parent="1">
          <mxGeometry x="-135" y="250" width="135" height="60" as="geometry" />
        </mxCell>
        <mxCell id="3Y2qNAMYO-wNbByZRbtN-19" value="" style="edgeStyle=none;curved=1;rounded=0;orthogonalLoop=1;jettySize=auto;html=1;fontSize=12;startSize=8;endSize=8;" edge="1" parent="1" source="3Y2qNAMYO-wNbByZRbtN-16" target="3Y2qNAMYO-wNbByZRbtN-18">
          <mxGeometry relative="1" as="geometry" />
        </mxCell>
        <mxCell id="3Y2qNAMYO-wNbByZRbtN-16" value="age &amp;lt; 8" style="strokeWidth=2;html=1;shape=mxgraph.flowchart.decision;whiteSpace=wrap;" vertex="1" parent="1">
          <mxGeometry x="-120" y="380" width="100" height="100" as="geometry" />
        </mxCell>
        <mxCell id="3Y2qNAMYO-wNbByZRbtN-18" value="&quot;학교에 안다닙니다&quot;" style="strokeWidth=2;html=1;shape=mxgraph.flowchart.document2;whiteSpace=wrap;size=0.25;" vertex="1" parent="1">
          <mxGeometry x="50" y="400" width="100" height="60" as="geometry" />
        </mxCell>
        <mxCell id="3Y2qNAMYO-wNbByZRbtN-20" value="YES" style="text;html=1;align=center;verticalAlign=middle;resizable=0;points=[];autosize=1;strokeColor=none;fillColor=none;fontSize=16;" vertex="1" parent="1">
          <mxGeometry x="-30" y="391" width="60" height="30" as="geometry" />
        </mxCell>
        <mxCell id="3Y2qNAMYO-wNbByZRbtN-21" value="" style="edgeStyle=none;curved=0;rounded=0;orthogonalLoop=1;jettySize=auto;html=1;fontSize=12;startSize=8;endSize=8;exitX=0.509;exitY=0.914;exitDx=0;exitDy=0;exitPerimeter=0;entryX=1;entryY=0.5;entryDx=0;entryDy=0;" edge="1" parent="1" source="3Y2qNAMYO-wNbByZRbtN-10" target="3Y2qNAMYO-wNbByZRbtN-14">
          <mxGeometry relative="1" as="geometry">
            <mxPoint x="-57" y="200" as="sourcePoint" />
            <mxPoint x="-57" y="260" as="targetPoint" />
            <Array as="points">
              <mxPoint x="100" y="280" />
            </Array>
          </mxGeometry>
        </mxCell>
        <mxCell id="3Y2qNAMYO-wNbByZRbtN-26" value="" style="edgeStyle=none;curved=1;rounded=0;orthogonalLoop=1;jettySize=auto;html=1;fontSize=12;startSize=8;endSize=8;" edge="1" parent="1" source="3Y2qNAMYO-wNbByZRbtN-22" target="3Y2qNAMYO-wNbByZRbtN-25">
          <mxGeometry relative="1" as="geometry" />
        </mxCell>
        <mxCell id="3Y2qNAMYO-wNbByZRbtN-22" value="&quot;2 IF 코드블럭 종료&quot;" style="shape=parallelogram;html=1;strokeWidth=2;perimeter=parallelogramPerimeter;whiteSpace=wrap;rounded=1;arcSize=12;size=0.23;" vertex="1" parent="1">
          <mxGeometry x="-137.5" y="550" width="135" height="60" as="geometry" />
        </mxCell>
        <mxCell id="3Y2qNAMYO-wNbByZRbtN-23" value="" style="edgeStyle=none;curved=0;rounded=0;orthogonalLoop=1;jettySize=auto;html=1;fontSize=12;startSize=8;endSize=8;exitX=0.509;exitY=0.914;exitDx=0;exitDy=0;exitPerimeter=0;entryX=1;entryY=0.5;entryDx=0;entryDy=0;" edge="1" parent="1" target="3Y2qNAMYO-wNbByZRbtN-22">
          <mxGeometry relative="1" as="geometry">
            <mxPoint x="100" y="451" as="sourcePoint" />
            <mxPoint x="-17" y="566" as="targetPoint" />
            <Array as="points">
              <mxPoint x="100" y="580" />
            </Array>
          </mxGeometry>
        </mxCell>
        <mxCell id="3Y2qNAMYO-wNbByZRbtN-24" value="" style="edgeStyle=none;curved=1;rounded=0;orthogonalLoop=1;jettySize=auto;html=1;fontSize=12;startSize=8;endSize=8;" edge="1" parent="1">
          <mxGeometry relative="1" as="geometry">
            <mxPoint x="-69.5" y="480" as="sourcePoint" />
            <mxPoint x="-70.5" y="550" as="targetPoint" />
          </mxGeometry>
        </mxCell>
        <mxCell id="3Y2qNAMYO-wNbByZRbtN-27" value="" style="edgeStyle=none;curved=1;rounded=0;orthogonalLoop=1;jettySize=auto;html=1;fontSize=12;startSize=8;endSize=8;" edge="1" parent="1" source="3Y2qNAMYO-wNbByZRbtN-25" target="3Y2qNAMYO-wNbByZRbtN-4">
          <mxGeometry relative="1" as="geometry" />
        </mxCell>
        <mxCell id="3Y2qNAMYO-wNbByZRbtN-25" value="&quot;프로그램종료&quot;" style="shape=parallelogram;html=1;strokeWidth=2;perimeter=parallelogramPerimeter;whiteSpace=wrap;rounded=1;arcSize=12;size=0.23;" vertex="1" parent="1">
          <mxGeometry x="-140" y="680" width="135" height="60" as="geometry" />
        </mxCell>
        <mxCell id="3Y2qNAMYO-wNbByZRbtN-28" value="" style="edgeStyle=none;curved=1;rounded=0;orthogonalLoop=1;jettySize=auto;html=1;fontSize=12;startSize=8;endSize=8;" edge="1" parent="1" target="3Y2qNAMYO-wNbByZRbtN-32">
          <mxGeometry relative="1" as="geometry">
            <mxPoint x="600.625" y="-74" as="sourcePoint" />
          </mxGeometry>
        </mxCell>
        <mxCell id="3Y2qNAMYO-wNbByZRbtN-29" value="시작" style="strokeWidth=2;html=1;shape=mxgraph.flowchart.terminator;whiteSpace=wrap;" vertex="1" parent="1">
          <mxGeometry x="550" y="-130" width="100" height="60" as="geometry" />
        </mxCell>
        <mxCell id="3Y2qNAMYO-wNbByZRbtN-30" value="끝" style="strokeWidth=2;html=1;shape=mxgraph.flowchart.terminator;whiteSpace=wrap;" vertex="1" parent="1">
          <mxGeometry x="552.5" y="430" width="100" height="60" as="geometry" />
        </mxCell>
        <mxCell id="3Y2qNAMYO-wNbByZRbtN-31" value="" style="edgeStyle=none;curved=1;rounded=0;orthogonalLoop=1;jettySize=auto;html=1;fontSize=12;startSize=8;endSize=8;" edge="1" parent="1" source="3Y2qNAMYO-wNbByZRbtN-32">
          <mxGeometry relative="1" as="geometry">
            <mxPoint x="602.5" y="106" as="targetPoint" />
          </mxGeometry>
        </mxCell>
        <mxCell id="3Y2qNAMYO-wNbByZRbtN-32" value="나이(age) 입력" style="shape=parallelogram;html=1;strokeWidth=2;perimeter=parallelogramPerimeter;whiteSpace=wrap;rounded=1;arcSize=12;size=0.23;" vertex="1" parent="1">
          <mxGeometry x="535" y="-10" width="135" height="60" as="geometry" />
        </mxCell>
        <mxCell id="3Y2qNAMYO-wNbByZRbtN-53" value="" style="edgeStyle=none;curved=1;rounded=0;orthogonalLoop=1;jettySize=auto;html=1;fontSize=12;startSize=8;endSize=8;" edge="1" parent="1" source="3Y2qNAMYO-wNbByZRbtN-35">
          <mxGeometry relative="1" as="geometry">
            <mxPoint x="480" y="156" as="targetPoint" />
          </mxGeometry>
        </mxCell>
        <mxCell id="3Y2qNAMYO-wNbByZRbtN-35" value="age &amp;gt;=8" style="strokeWidth=2;html=1;shape=mxgraph.flowchart.decision;whiteSpace=wrap;" vertex="1" parent="1">
          <mxGeometry x="552.5" y="106" width="100" height="100" as="geometry" />
        </mxCell>
        <mxCell id="3Y2qNAMYO-wNbByZRbtN-37" value="YES" style="text;html=1;align=center;verticalAlign=middle;resizable=0;points=[];autosize=1;strokeColor=none;fillColor=none;fontSize=16;" vertex="1" parent="1">
          <mxGeometry x="640" y="106" width="60" height="30" as="geometry" />
        </mxCell>
        <mxCell id="3Y2qNAMYO-wNbByZRbtN-44" value="" style="edgeStyle=none;curved=0;rounded=0;orthogonalLoop=1;jettySize=auto;html=1;fontSize=12;startSize=8;endSize=8;exitX=0.509;exitY=0.914;exitDx=0;exitDy=0;exitPerimeter=0;entryX=1;entryY=0.5;entryDx=0;entryDy=0;" edge="1" parent="1">
          <mxGeometry relative="1" as="geometry">
            <mxPoint x="770.9000000000001" y="180.83999999999992" as="sourcePoint" />
            <mxPoint x="654.4749999999999" y="296" as="targetPoint" />
            <Array as="points">
              <mxPoint x="770" y="296" />
            </Array>
          </mxGeometry>
        </mxCell>
        <mxCell id="3Y2qNAMYO-wNbByZRbtN-49" value="" style="edgeStyle=none;curved=1;rounded=0;orthogonalLoop=1;jettySize=auto;html=1;fontSize=12;startSize=8;endSize=8;" edge="1" parent="1" source="3Y2qNAMYO-wNbByZRbtN-50" target="3Y2qNAMYO-wNbByZRbtN-30">
          <mxGeometry relative="1" as="geometry" />
        </mxCell>
        <mxCell id="3Y2qNAMYO-wNbByZRbtN-50" value="&quot;프로그램종료&quot;" style="shape=parallelogram;html=1;strokeWidth=2;perimeter=parallelogramPerimeter;whiteSpace=wrap;rounded=1;arcSize=12;size=0.23;" vertex="1" parent="1">
          <mxGeometry x="532.5" y="270" width="135" height="60" as="geometry" />
        </mxCell>
        <mxCell id="3Y2qNAMYO-wNbByZRbtN-52" value="1 IF" style="shape=umlFrame;whiteSpace=wrap;html=1;pointerEvents=0;width=80;height=30;" vertex="1" parent="1">
          <mxGeometry x="-380" y="-170" width="660" height="1080" as="geometry" />
        </mxCell>
        <mxCell id="3Y2qNAMYO-wNbByZRbtN-55" value="" style="edgeStyle=none;curved=0;rounded=0;orthogonalLoop=1;jettySize=auto;html=1;fontSize=12;startSize=8;endSize=8;exitX=0.41;exitY=0.933;exitDx=0;exitDy=0;exitPerimeter=0;entryX=0;entryY=0.5;entryDx=0;entryDy=0;" edge="1" parent="1">
          <mxGeometry relative="1" as="geometry">
            <mxPoint x="421" y="181.98000000000002" as="sourcePoint" />
            <mxPoint x="550.5250000000001" y="296" as="targetPoint" />
            <Array as="points">
              <mxPoint x="421" y="296" />
            </Array>
          </mxGeometry>
        </mxCell>
        <mxCell id="3Y2qNAMYO-wNbByZRbtN-59" value="1 문제" style="shape=umlFrame;whiteSpace=wrap;html=1;pointerEvents=0;width=100;height=30;" vertex="1" parent="1">
          <mxGeometry x="-380" y="930" width="660" height="1080" as="geometry" />
        </mxCell>
        <mxCell id="3Y2qNAMYO-wNbByZRbtN-61" value="&quot;학교에&amp;nbsp;&lt;div&gt;안다닙니다&quot;&lt;/div&gt;" style="shape=parallelogram;html=1;strokeWidth=2;perimeter=parallelogramPerimeter;whiteSpace=wrap;rounded=1;arcSize=12;size=0.23;" vertex="1" parent="1">
          <mxGeometry x="370" y="120" width="135" height="60" as="geometry" />
        </mxCell>
        <mxCell id="3Y2qNAMYO-wNbByZRbtN-62" value="&quot;학교에&lt;br&gt;다닙니다&quot;" style="shape=parallelogram;html=1;strokeWidth=2;perimeter=parallelogramPerimeter;whiteSpace=wrap;rounded=1;arcSize=12;size=0.23;" vertex="1" parent="1">
          <mxGeometry x="710" y="126" width="135" height="60" as="geometry" />
        </mxCell>
        <mxCell id="3Y2qNAMYO-wNbByZRbtN-64" value="" style="edgeStyle=none;curved=1;rounded=0;orthogonalLoop=1;jettySize=auto;html=1;fontSize=12;startSize=8;endSize=8;entryX=0;entryY=0.5;entryDx=0;entryDy=0;" edge="1" parent="1" target="3Y2qNAMYO-wNbByZRbtN-62">
          <mxGeometry relative="1" as="geometry">
            <mxPoint x="653" y="156" as="sourcePoint" />
            <mxPoint x="720" y="156" as="targetPoint" />
          </mxGeometry>
        </mxCell>
        <mxCell id="3Y2qNAMYO-wNbByZRbtN-72" value="" style="edgeStyle=none;curved=1;rounded=0;orthogonalLoop=1;jettySize=auto;html=1;fontSize=12;startSize=8;endSize=8;" edge="1" parent="1" source="3Y2qNAMYO-wNbByZRbtN-66" target="3Y2qNAMYO-wNbByZRbtN-68">
          <mxGeometry relative="1" as="geometry" />
        </mxCell>
        <mxCell id="3Y2qNAMYO-wNbByZRbtN-66" value="시작&lt;span style=&quot;color: rgba(0, 0, 0, 0); font-family: monospace; font-size: 0px; text-align: start; text-wrap: nowrap;&quot;&gt;%3CmxGraphModel%3E%3Croot%3E%3CmxCell%20id%3D%220%22%2F%3E%3CmxCell%20id%3D%221%22%20parent%3D%220%22%2F%3E%3CmxCell%20id%3D%222%22%20value%3D%22%EB%81%9D%22%20style%3D%22strokeWidth%3D2%3Bhtml%3D1%3Bshape%3Dmxgraph.flowchart.terminator%3BwhiteSpace%3Dwrap%3B%22%20vertex%3D%221%22%20parent%3D%221%22%3E%3CmxGeometry%20x%3D%22-122.5%22%20y%3D%22810%22%20width%3D%22100%22%20height%3D%2260%22%20as%3D%22geometry%22%2F%3E%3C%2FmxCell%3E%3C%2Froot%3E%3C%2FmxGraphModel%3E&lt;/span&gt;" style="strokeWidth=2;html=1;shape=mxgraph.flowchart.terminator;whiteSpace=wrap;" vertex="1" parent="1">
          <mxGeometry x="-120" y="970" width="100" height="60" as="geometry" />
        </mxCell>
        <mxCell id="3Y2qNAMYO-wNbByZRbtN-67" value="끝" style="strokeWidth=2;html=1;shape=mxgraph.flowchart.terminator;whiteSpace=wrap;" vertex="1" parent="1">
          <mxGeometry x="-117.5" y="1860" width="100" height="60" as="geometry" />
        </mxCell>
        <mxCell id="3Y2qNAMYO-wNbByZRbtN-73" value="" style="edgeStyle=none;curved=1;rounded=0;orthogonalLoop=1;jettySize=auto;html=1;fontSize=12;startSize=8;endSize=8;" edge="1" parent="1" source="3Y2qNAMYO-wNbByZRbtN-68" target="3Y2qNAMYO-wNbByZRbtN-69">
          <mxGeometry relative="1" as="geometry" />
        </mxCell>
        <mxCell id="3Y2qNAMYO-wNbByZRbtN-68" value="num 입력" style="shape=parallelogram;html=1;strokeWidth=2;perimeter=parallelogramPerimeter;whiteSpace=wrap;rounded=1;arcSize=12;size=0.23;" vertex="1" parent="1">
          <mxGeometry x="-137.5" y="1100" width="135" height="60" as="geometry" />
        </mxCell>
        <mxCell id="3Y2qNAMYO-wNbByZRbtN-74" value="" style="edgeStyle=none;curved=1;rounded=0;orthogonalLoop=1;jettySize=auto;html=1;fontSize=12;startSize=8;endSize=8;" edge="1" parent="1" source="3Y2qNAMYO-wNbByZRbtN-69" target="3Y2qNAMYO-wNbByZRbtN-71">
          <mxGeometry relative="1" as="geometry" />
        </mxCell>
        <mxCell id="3Y2qNAMYO-wNbByZRbtN-69" value="num%3==0" style="strokeWidth=2;html=1;shape=mxgraph.flowchart.decision;whiteSpace=wrap;" vertex="1" parent="1">
          <mxGeometry x="-117.5" y="1220" width="100" height="100" as="geometry" />
        </mxCell>
        <mxCell id="3Y2qNAMYO-wNbByZRbtN-78" value="" style="edgeStyle=none;curved=1;rounded=0;orthogonalLoop=1;jettySize=auto;html=1;fontSize=12;startSize=8;endSize=8;" edge="1" parent="1" source="3Y2qNAMYO-wNbByZRbtN-70" target="3Y2qNAMYO-wNbByZRbtN-76">
          <mxGeometry relative="1" as="geometry" />
        </mxCell>
        <mxCell id="3Y2qNAMYO-wNbByZRbtN-70" value="num%5==0" style="strokeWidth=2;html=1;shape=mxgraph.flowchart.decision;whiteSpace=wrap;" vertex="1" parent="1">
          <mxGeometry x="-117.5" y="1510" width="100" height="100" as="geometry" />
        </mxCell>
        <mxCell id="3Y2qNAMYO-wNbByZRbtN-75" value="" style="edgeStyle=none;curved=1;rounded=0;orthogonalLoop=1;jettySize=auto;html=1;fontSize=12;startSize=8;endSize=8;" edge="1" parent="1" source="3Y2qNAMYO-wNbByZRbtN-71" target="3Y2qNAMYO-wNbByZRbtN-70">
          <mxGeometry relative="1" as="geometry" />
        </mxCell>
        <mxCell id="3Y2qNAMYO-wNbByZRbtN-71" value="&quot;3의 배수입니다&quot;" style="shape=parallelogram;html=1;strokeWidth=2;perimeter=parallelogramPerimeter;whiteSpace=wrap;rounded=1;arcSize=12;size=0.23;" vertex="1" parent="1">
          <mxGeometry x="-135" y="1390" width="135" height="60" as="geometry" />
        </mxCell>
        <mxCell id="3Y2qNAMYO-wNbByZRbtN-79" value="" style="edgeStyle=none;curved=1;rounded=0;orthogonalLoop=1;jettySize=auto;html=1;fontSize=12;startSize=8;endSize=8;" edge="1" parent="1" source="3Y2qNAMYO-wNbByZRbtN-76" target="3Y2qNAMYO-wNbByZRbtN-67">
          <mxGeometry relative="1" as="geometry" />
        </mxCell>
        <mxCell id="3Y2qNAMYO-wNbByZRbtN-76" value="&quot;5의 배수입니다&quot;" style="shape=parallelogram;html=1;strokeWidth=2;perimeter=parallelogramPerimeter;whiteSpace=wrap;rounded=1;arcSize=12;size=0.23;" vertex="1" parent="1">
          <mxGeometry x="-135" y="1700" width="135" height="60" as="geometry" />
        </mxCell>
        <mxCell id="3Y2qNAMYO-wNbByZRbtN-77" value="YES" style="text;html=1;align=center;verticalAlign=middle;resizable=0;points=[];autosize=1;strokeColor=none;fillColor=none;fontSize=16;" vertex="1" parent="1">
          <mxGeometry x="-65" y="1321" width="60" height="30" as="geometry" />
        </mxCell>
        <mxCell id="3Y2qNAMYO-wNbByZRbtN-80" value="YES" style="text;html=1;align=center;verticalAlign=middle;resizable=0;points=[];autosize=1;strokeColor=none;fillColor=none;fontSize=16;" vertex="1" parent="1">
          <mxGeometry x="-65" y="1610" width="60" height="30" as="geometry" />
        </mxCell>
        <mxCell id="3Y2qNAMYO-wNbByZRbtN-82" value="" style="edgeStyle=none;curved=0;rounded=0;orthogonalLoop=1;jettySize=auto;html=1;fontSize=12;startSize=8;endSize=8;exitX=0;exitY=0.5;exitDx=0;exitDy=0;exitPerimeter=0;" edge="1" parent="1" source="3Y2qNAMYO-wNbByZRbtN-69">
          <mxGeometry relative="1" as="geometry">
            <mxPoint x="-57" y="1620" as="sourcePoint" />
            <mxPoint x="-120" y="1890" as="targetPoint" />
            <Array as="points">
              <mxPoint x="-320" y="1270" />
              <mxPoint x="-320" y="1890" />
            </Array>
          </mxGeometry>
        </mxCell>
        <mxCell id="3Y2qNAMYO-wNbByZRbtN-83" value="NO" style="text;html=1;align=center;verticalAlign=middle;resizable=0;points=[];autosize=1;strokeColor=none;fillColor=none;fontSize=16;" vertex="1" parent="1">
          <mxGeometry x="-160" y="1240" width="50" height="30" as="geometry" />
        </mxCell>
        <mxCell id="3Y2qNAMYO-wNbByZRbtN-85" value="" style="edgeStyle=none;curved=0;rounded=0;orthogonalLoop=1;jettySize=auto;html=1;fontSize=12;startSize=8;endSize=8;exitX=0;exitY=0.5;exitDx=0;exitDy=0;exitPerimeter=0;" edge="1" parent="1" source="3Y2qNAMYO-wNbByZRbtN-70">
          <mxGeometry relative="1" as="geometry">
            <mxPoint x="-57" y="1620" as="sourcePoint" />
            <mxPoint x="-120" y="1890" as="targetPoint" />
            <Array as="points">
              <mxPoint x="-320" y="1560" />
              <mxPoint x="-320" y="1890" />
            </Array>
          </mxGeometry>
        </mxCell>
        <mxCell id="3Y2qNAMYO-wNbByZRbtN-86" value="NO" style="text;html=1;align=center;verticalAlign=middle;resizable=0;points=[];autosize=1;strokeColor=none;fillColor=none;fontSize=16;" vertex="1" parent="1">
          <mxGeometry x="-160" y="1530" width="50" height="30" as="geometry" />
        </mxCell>
        <mxCell id="3Y2qNAMYO-wNbByZRbtN-88" value="3 문제" style="shape=umlFrame;whiteSpace=wrap;html=1;pointerEvents=0;width=100;height=30;" vertex="1" parent="1">
          <mxGeometry x="290" y="930" width="660" height="1080" as="geometry" />
        </mxCell>
        <mxCell id="3Y2qNAMYO-wNbByZRbtN-92" value="" style="edgeStyle=none;curved=1;rounded=0;orthogonalLoop=1;jettySize=auto;html=1;fontSize=12;startSize=8;endSize=8;" edge="1" parent="1" source="3Y2qNAMYO-wNbByZRbtN-89" target="3Y2qNAMYO-wNbByZRbtN-91">
          <mxGeometry relative="1" as="geometry" />
        </mxCell>
        <mxCell id="3Y2qNAMYO-wNbByZRbtN-89" value="시작&lt;span style=&quot;color: rgba(0, 0, 0, 0); font-family: monospace; font-size: 0px; text-align: start; text-wrap: nowrap;&quot;&gt;%3CmxGraphModel%3E%3Croot%3E%3CmxCell%20id%3D%220%22%2F%3E%3CmxCell%20id%3D%221%22%20parent%3D%220%22%2F%3E%3CmxCell%20id%3D%222%22%20value%3D%22%EB%81%9D%22%20style%3D%22strokeWidth%3D2%3Bhtml%3D1%3Bshape%3Dmxgraph.flowchart.terminator%3BwhiteSpace%3Dwrap%3B%22%20vertex%3D%221%22%20parent%3D%221%22%3E%3CmxGeometry%20x%3D%22-122.5%22%20y%3D%22810%22%20width%3D%22100%22%20height%3D%2260%22%20as%3D%22geometry%22%2F%3E%3C%2FmxCell%3E%3C%2Froot%3E%3C%2FmxGraphModel%3E&lt;/span&gt;" style="strokeWidth=2;html=1;shape=mxgraph.flowchart.terminator;whiteSpace=wrap;" vertex="1" parent="1">
          <mxGeometry x="560" y="980" width="100" height="60" as="geometry" />
        </mxCell>
        <mxCell id="3Y2qNAMYO-wNbByZRbtN-90" value="끝" style="strokeWidth=2;html=1;shape=mxgraph.flowchart.terminator;whiteSpace=wrap;" vertex="1" parent="1">
          <mxGeometry x="562.5" y="1940" width="100" height="60" as="geometry" />
        </mxCell>
        <mxCell id="3Y2qNAMYO-wNbByZRbtN-94" value="" style="edgeStyle=none;curved=1;rounded=0;orthogonalLoop=1;jettySize=auto;html=1;fontSize=12;startSize=8;endSize=8;" edge="1" parent="1" source="3Y2qNAMYO-wNbByZRbtN-91" target="3Y2qNAMYO-wNbByZRbtN-93">
          <mxGeometry relative="1" as="geometry" />
        </mxCell>
        <mxCell id="3Y2qNAMYO-wNbByZRbtN-91" value="n1,n2,n3&lt;br&gt;입력" style="shape=parallelogram;html=1;strokeWidth=2;perimeter=parallelogramPerimeter;whiteSpace=wrap;rounded=1;arcSize=12;size=0.23;" vertex="1" parent="1">
          <mxGeometry x="542.5" y="1100" width="135" height="60" as="geometry" />
        </mxCell>
        <mxCell id="3Y2qNAMYO-wNbByZRbtN-96" value="" style="edgeStyle=none;curved=1;rounded=0;orthogonalLoop=1;jettySize=auto;html=1;fontSize=12;startSize=8;endSize=8;" edge="1" parent="1" source="3Y2qNAMYO-wNbByZRbtN-93" target="3Y2qNAMYO-wNbByZRbtN-95">
          <mxGeometry relative="1" as="geometry" />
        </mxCell>
        <mxCell id="3Y2qNAMYO-wNbByZRbtN-93" value="max = n1" style="whiteSpace=wrap;html=1;strokeWidth=2;rounded=1;arcSize=12;" vertex="1" parent="1">
          <mxGeometry x="552.5" y="1210" width="120" height="60" as="geometry" />
        </mxCell>
        <mxCell id="3Y2qNAMYO-wNbByZRbtN-98" value="" style="edgeStyle=none;curved=1;rounded=0;orthogonalLoop=1;jettySize=auto;html=1;fontSize=12;startSize=8;endSize=8;" edge="1" parent="1" source="3Y2qNAMYO-wNbByZRbtN-95" target="3Y2qNAMYO-wNbByZRbtN-97">
          <mxGeometry relative="1" as="geometry" />
        </mxCell>
        <mxCell id="3Y2qNAMYO-wNbByZRbtN-95" value="max&amp;lt;n2" style="rhombus;whiteSpace=wrap;html=1;strokeWidth=2;rounded=1;arcSize=12;" vertex="1" parent="1">
          <mxGeometry x="572.5" y="1330" width="80" height="80" as="geometry" />
        </mxCell>
        <mxCell id="3Y2qNAMYO-wNbByZRbtN-108" value="" style="edgeStyle=none;curved=1;rounded=0;orthogonalLoop=1;jettySize=auto;html=1;fontSize=12;startSize=8;endSize=8;" edge="1" parent="1" source="3Y2qNAMYO-wNbByZRbtN-97" target="3Y2qNAMYO-wNbByZRbtN-107">
          <mxGeometry relative="1" as="geometry" />
        </mxCell>
        <mxCell id="3Y2qNAMYO-wNbByZRbtN-97" value="max = n2" style="whiteSpace=wrap;html=1;strokeWidth=2;rounded=1;arcSize=12;" vertex="1" parent="1">
          <mxGeometry x="552.5" y="1460" width="120" height="60" as="geometry" />
        </mxCell>
        <mxCell id="3Y2qNAMYO-wNbByZRbtN-99" value="YES" style="text;html=1;align=center;verticalAlign=middle;resizable=0;points=[];autosize=1;strokeColor=none;fillColor=none;fontSize=16;" vertex="1" parent="1">
          <mxGeometry x="607.5" y="1410" width="60" height="30" as="geometry" />
        </mxCell>
        <mxCell id="3Y2qNAMYO-wNbByZRbtN-110" value="" style="edgeStyle=none;curved=1;rounded=0;orthogonalLoop=1;jettySize=auto;html=1;fontSize=12;startSize=8;endSize=8;" edge="1" parent="1" source="3Y2qNAMYO-wNbByZRbtN-107" target="3Y2qNAMYO-wNbByZRbtN-109">
          <mxGeometry relative="1" as="geometry" />
        </mxCell>
        <mxCell id="3Y2qNAMYO-wNbByZRbtN-107" value="max&amp;lt;n3" style="rhombus;whiteSpace=wrap;html=1;strokeWidth=2;rounded=1;arcSize=12;" vertex="1" parent="1">
          <mxGeometry x="572.5" y="1570" width="80" height="80" as="geometry" />
        </mxCell>
        <mxCell id="3Y2qNAMYO-wNbByZRbtN-116" value="" style="edgeStyle=none;curved=1;rounded=0;orthogonalLoop=1;jettySize=auto;html=1;fontSize=12;startSize=8;endSize=8;" edge="1" parent="1" source="3Y2qNAMYO-wNbByZRbtN-109" target="3Y2qNAMYO-wNbByZRbtN-115">
          <mxGeometry relative="1" as="geometry" />
        </mxCell>
        <mxCell id="3Y2qNAMYO-wNbByZRbtN-109" value="max=n3" style="whiteSpace=wrap;html=1;strokeWidth=2;rounded=1;arcSize=12;" vertex="1" parent="1">
          <mxGeometry x="552.5" y="1700" width="120" height="60" as="geometry" />
        </mxCell>
        <mxCell id="3Y2qNAMYO-wNbByZRbtN-111" value="YES" style="text;html=1;align=center;verticalAlign=middle;resizable=0;points=[];autosize=1;strokeColor=none;fillColor=none;fontSize=16;" vertex="1" parent="1">
          <mxGeometry x="612.5" y="1650" width="60" height="30" as="geometry" />
        </mxCell>
        <mxCell id="3Y2qNAMYO-wNbByZRbtN-112" value="" style="edgeStyle=none;curved=0;rounded=0;orthogonalLoop=1;jettySize=auto;html=1;fontSize=12;startSize=8;endSize=8;exitX=0;exitY=0.5;exitDx=0;exitDy=0;entryX=0;entryY=0.5;entryDx=0;entryDy=0;" edge="1" parent="1" source="3Y2qNAMYO-wNbByZRbtN-95" target="3Y2qNAMYO-wNbByZRbtN-107">
          <mxGeometry relative="1" as="geometry">
            <mxPoint x="623" y="1420" as="sourcePoint" />
            <mxPoint x="623" y="1470" as="targetPoint" />
            <Array as="points">
              <mxPoint x="460" y="1370" />
              <mxPoint x="460" y="1610" />
            </Array>
          </mxGeometry>
        </mxCell>
        <mxCell id="3Y2qNAMYO-wNbByZRbtN-113" value="NO" style="text;html=1;align=center;verticalAlign=middle;resizable=0;points=[];autosize=1;strokeColor=none;fillColor=none;fontSize=16;" vertex="1" parent="1">
          <mxGeometry x="527.5" y="1341" width="50" height="30" as="geometry" />
        </mxCell>
        <mxCell id="3Y2qNAMYO-wNbByZRbtN-118" value="" style="edgeStyle=none;curved=1;rounded=0;orthogonalLoop=1;jettySize=auto;html=1;fontSize=12;startSize=8;endSize=8;" edge="1" parent="1" source="3Y2qNAMYO-wNbByZRbtN-115" target="3Y2qNAMYO-wNbByZRbtN-90">
          <mxGeometry relative="1" as="geometry" />
        </mxCell>
        <mxCell id="3Y2qNAMYO-wNbByZRbtN-115" value="max 출력" style="shape=parallelogram;perimeter=parallelogramPerimeter;whiteSpace=wrap;html=1;fixedSize=1;strokeWidth=2;rounded=1;arcSize=12;" vertex="1" parent="1">
          <mxGeometry x="552.5" y="1820" width="120" height="60" as="geometry" />
        </mxCell>
        <mxCell id="3Y2qNAMYO-wNbByZRbtN-117" style="edgeStyle=none;curved=1;rounded=0;orthogonalLoop=1;jettySize=auto;html=1;exitX=1;exitY=0.75;exitDx=0;exitDy=0;fontSize=12;startSize=8;endSize=8;" edge="1" parent="1" source="3Y2qNAMYO-wNbByZRbtN-115" target="3Y2qNAMYO-wNbByZRbtN-115">
          <mxGeometry relative="1" as="geometry" />
        </mxCell>
        <mxCell id="3Y2qNAMYO-wNbByZRbtN-119" value="" style="edgeStyle=none;curved=0;rounded=0;orthogonalLoop=1;jettySize=auto;html=1;fontSize=12;startSize=8;endSize=8;exitX=1;exitY=0.5;exitDx=0;exitDy=0;entryX=0.898;entryY=0.584;entryDx=0;entryDy=0;entryPerimeter=0;" edge="1" parent="1">
          <mxGeometry relative="1" as="geometry">
            <mxPoint x="650" y="1610" as="sourcePoint" />
            <mxPoint x="657.7600000000002" y="1855.04" as="targetPoint" />
            <Array as="points">
              <mxPoint x="800" y="1610" />
              <mxPoint x="800" y="1855" />
            </Array>
          </mxGeometry>
        </mxCell>
        <mxCell id="3Y2qNAMYO-wNbByZRbtN-120" value="NO" style="text;html=1;align=center;verticalAlign=middle;resizable=0;points=[];autosize=1;strokeColor=none;fillColor=none;fontSize=16;" vertex="1" parent="1">
          <mxGeometry x="645" y="1580" width="50" height="30" as="geometry" />
        </mxCell>
      </root>
    </mxGraphModel>
  </diagram>
</mxfile>
